<svg width="457" height="60" viewBox="0 0 457 60" fill="none" xmlns="http://www.w3.org/2000/svg">
<path d="M3 34V31H9V16H3V13H21V16H15V31H21V34H3ZM48 34V19H66V22H69V34H63V22H60V34H54V22H51V34H48ZM75 34V31H72V28H75V25H87V22H75V19H90V22H93V34H75ZM78 31H87V28H78V31ZM96 34V13H102V25H108V22H111V19H117V22H114V25H111V28H114V31H117V34H111V31H108V28H102V34H96ZM123 34V31H120V22H123V19H138V22H141V28H126V31H138V34H123ZM126 25H135V22H126V25ZM274.406 16V13H280.406V16H274.406ZM268.406 34V31H274.406V22H271.406V19H280.406V31H286.406V34H268.406ZM289.406 34V19H307.406V22H310.406V34H304.406V22H295.406V34H289.406ZM322.406 34V22H316.406V19H322.406V13H328.406V19H334.406V22H328.406V34H322.406ZM340.406 34V31H337.406V22H340.406V19H355.406V22H358.406V28H343.406V31H355.406V34H340.406ZM343.406 25H352.406V22H343.406V25ZM370.406 22H373.406V25H370.406V34H364.406V19H370.406V22ZM382.406 19V22H373.406V19H382.406ZM385.406 34V19H403.406V22H406.406V34H400.406V22H391.406V34H385.406ZM412.406 34V31H409.406V22H412.406V19H427.406V22H430.406V28H415.406V31H427.406V34H412.406ZM415.406 25H424.406V22H415.406V25ZM442.406 34V22H436.406V19H442.406V13H448.406V19H454.406V22H448.406V34H442.406Z" fill="black"/>
<path d="M151.584 54.088C150.944 54.088 150.176 52.376 149.28 48.952C148.416 45.528 147.632 41.72 146.928 37.528C146.256 33.368 145.92 30.744 145.92 29.656C145.92 26.424 147.008 24.072 149.184 22.6C151.36 21.096 154.16 20.344 157.584 20.344C159.408 20.344 161.136 20.728 162.768 21.496C164.4 22.232 165.712 23.304 166.704 24.712C167.696 26.088 168.192 27.688 168.192 29.512C168.192 31.784 167.392 33.384 165.792 34.312C164.224 35.24 162.24 35.704 159.84 35.704C157.344 35.704 155.216 35.288 153.456 34.456C151.728 33.592 150.864 32.424 150.864 30.952L150.912 30.472C151.136 30.216 151.376 30.088 151.632 30.088C151.856 30.088 152.096 30.184 152.352 30.376C152.64 30.536 152.944 30.728 153.264 30.952C154.256 31.688 155.232 32.28 156.192 32.728C157.184 33.176 158.416 33.4 159.888 33.4C161.904 33.4 163.328 33.048 164.16 32.344C165.024 31.608 165.456 30.456 165.456 28.888C165.456 27.736 165.072 26.712 164.304 25.816C163.536 24.92 162.544 24.232 161.328 23.752C160.112 23.272 158.864 23.032 157.584 23.032C154.608 23.032 152.368 23.672 150.864 24.952C149.36 26.2 148.688 28.296 148.848 31.24C149.136 36.232 149.584 40.424 150.192 43.816C150.832 47.208 151.936 50.088 153.504 52.456L153.552 52.552C153.552 52.616 153.472 52.68 153.312 52.744C153.184 52.84 153.088 52.92 153.024 52.984C152.64 53.592 152.16 53.96 151.584 54.088ZM176.253 37C174.941 34.44 173.901 31.432 173.133 27.976C172.397 24.52 172.029 21.528 172.029 19C172.029 18.008 172.253 17.368 172.701 17.08C172.957 16.92 173.149 16.84 173.277 16.84C173.501 16.84 173.661 17.016 173.757 17.368C173.885 17.72 174.013 18.36 174.141 19.288L174.381 21.016C174.733 19.288 175.405 17.928 176.397 16.936C177.421 15.912 178.669 15.4 180.141 15.4C181.773 15.4 182.989 15.72 183.789 16.36C184.589 16.968 184.989 17.992 184.989 19.432C183.389 18.664 181.933 18.28 180.621 18.28C179.373 18.28 178.301 18.616 177.405 19.288C176.509 19.96 175.885 20.952 175.533 22.264C175.245 23.16 175.101 24.008 175.101 24.808C175.101 25.672 175.213 26.488 175.437 27.256C175.693 27.992 176.077 28.904 176.589 29.992C177.069 31.112 177.437 32.072 177.693 32.872C177.981 33.672 178.141 34.536 178.173 35.464C178.173 36.008 177.981 36.408 177.597 36.664C177.213 36.888 176.765 37 176.253 37ZM198.217 37C196.169 37 194.281 36.6 192.553 35.8C190.825 35 189.449 33.864 188.425 32.392C187.401 30.92 186.889 29.224 186.889 27.304C186.889 25.16 187.289 23.16 188.089 21.304C188.889 19.416 190.057 17.912 191.593 16.792C193.161 15.64 194.985 15.064 197.065 15.064C199.241 15.064 200.889 15.768 202.009 17.176C203.129 18.552 203.657 20.296 203.593 22.408C203.593 24.296 202.841 25.736 201.337 26.728C199.865 27.72 197.977 28.216 195.673 28.216C195.321 28.216 194.793 28.184 194.089 28.12C192.937 27.992 192.121 27.816 191.641 27.592C191.161 27.368 190.921 26.92 190.921 26.248C190.921 26.024 190.985 25.864 191.113 25.768C191.241 25.64 191.497 25.576 191.881 25.576C192.297 25.576 193.033 25.672 194.089 25.864C195.113 26.056 196.025 26.152 196.825 26.152C199.769 26.152 201.241 24.872 201.241 22.312C201.241 20.776 200.953 19.56 200.377 18.664C199.833 17.768 198.857 17.32 197.449 17.32C195.913 17.32 194.537 17.736 193.321 18.568C192.105 19.368 191.161 20.424 190.489 21.736C189.849 23.048 189.529 24.44 189.529 25.912C189.529 28.44 190.233 30.52 191.641 32.152C193.049 33.752 195.225 34.552 198.169 34.552C198.521 34.552 199.113 34.52 199.945 34.456C200.297 34.424 200.729 34.328 201.241 34.168C201.753 34.008 202.121 33.896 202.345 33.832C203.721 33.352 204.729 33.112 205.369 33.112C205.849 33.112 206.217 33.24 206.473 33.496C205.673 34.712 204.473 35.608 202.873 36.184C201.305 36.728 199.753 37 198.217 37ZM216.132 37C215.812 37.064 215.604 37.096 215.508 37.096C214.516 37.096 213.828 36.36 213.444 34.888C213.092 33.416 212.916 31.352 212.916 28.696C212.916 27.608 212.948 25.912 213.012 23.608C213.076 22.2 213.108 21.144 213.108 20.44C209.172 20.44 207.204 19.992 207.204 19.096C207.204 18.808 207.236 18.584 207.3 18.424C207.396 18.264 207.588 18.184 207.876 18.184L213.108 17.848C213.076 16.28 212.996 14.568 212.868 12.712C212.74 11.048 212.66 9.512 212.628 8.104C212.628 7.752 212.772 7.512 213.06 7.384C213.348 7.224 213.652 7.144 213.972 7.144C214.356 7.144 214.676 7.352 214.932 7.768C215.188 8.152 215.316 8.552 215.316 8.968L215.652 17.752L219.636 17.944C220.244 17.88 220.756 17.992 221.172 18.28C221.62 18.568 221.86 19.048 221.892 19.72C221.22 20.008 220.484 20.184 219.684 20.248C218.884 20.312 217.54 20.344 215.652 20.344C215.652 23.32 215.796 28.216 216.084 35.032C216.084 35.736 216.084 36.232 216.084 36.52C216.116 36.776 216.132 36.936 216.132 37ZM232.257 37C231.937 37.064 231.729 37.096 231.633 37.096C230.641 37.096 229.953 36.36 229.569 34.888C229.217 33.416 229.041 31.352 229.041 28.696C229.041 27.608 229.073 25.912 229.137 23.608C229.201 22.2 229.233 21.144 229.233 20.44C225.297 20.44 223.329 19.992 223.329 19.096C223.329 18.808 223.361 18.584 223.425 18.424C223.521 18.264 223.713 18.184 224.001 18.184L229.233 17.848C229.201 16.28 229.121 14.568 228.993 12.712C228.865 11.048 228.785 9.512 228.753 8.104C228.753 7.752 228.897 7.512 229.185 7.384C229.473 7.224 229.777 7.144 230.097 7.144C230.481 7.144 230.801 7.352 231.057 7.768C231.313 8.152 231.441 8.552 231.441 8.968L231.777 17.752L235.761 17.944C236.369 17.88 236.881 17.992 237.297 18.28C237.745 18.568 237.985 19.048 238.017 19.72C237.345 20.008 236.609 20.184 235.809 20.248C235.009 20.312 233.665 20.344 231.777 20.344C231.777 23.32 231.921 28.216 232.209 35.032C232.209 35.736 232.209 36.232 232.209 36.52C232.241 36.776 232.257 36.936 232.257 37ZM253.806 59.704C251.63 59.704 249.678 59.24 247.95 58.312C246.254 57.384 244.894 56.312 243.87 55.096C242.846 53.88 242.27 52.888 242.142 52.12C242.014 51.416 242.174 50.872 242.622 50.488C243.102 50.104 243.694 49.944 244.398 50.008C245.39 52.376 246.574 54.2 247.95 55.48C249.326 56.76 251.294 57.432 253.854 57.496C255.646 57.528 257.07 56.376 258.126 54.04C259.214 51.736 259.982 48.904 260.43 45.544C260.878 42.216 261.102 38.936 261.102 35.704C261.102 34.04 261.054 32.68 260.958 31.624C258.526 34.6 255.422 36.088 251.646 36.088C248.382 36.088 245.87 34.536 244.11 31.432C242.382 28.328 241.262 24.824 240.75 20.92C240.686 20.536 240.654 19.992 240.654 19.288C240.654 17.272 241.31 16.264 242.622 16.264C242.75 16.264 242.926 17.064 243.15 18.664C243.502 21.192 243.934 23.464 244.446 25.48C244.958 27.496 245.806 29.336 246.99 31C248.206 32.632 249.806 33.448 251.79 33.448C253.358 33.448 254.958 32.936 256.59 31.912C258.254 30.856 259.454 29.688 260.19 28.408C260.19 25.976 259.87 23.8 259.23 21.88C258.622 19.928 258.302 18.888 258.27 18.76C258.206 18.056 258.174 17.608 258.174 17.416C258.174 16.776 258.27 16.312 258.462 16.024C258.686 15.736 259.006 15.592 259.422 15.592C259.87 15.592 260.382 16.504 260.958 18.328C261.534 20.152 262.046 22.536 262.494 25.48C262.942 28.424 263.246 31.496 263.406 34.696C263.47 36.36 263.502 37.592 263.502 38.392C263.502 44.536 262.734 49.624 261.198 53.656C259.694 57.688 257.23 59.704 253.806 59.704Z" fill="#B6008E" fill-opacity="0.49"/>
<style>
  svg {cursor:url("heart.cur"), pointer};
  </style>

</svg>
