<svg width="800" height="71" viewBox="0 0 800 71" fill="none" xmlns="http://www.w3.org/2000/svg">
<rect width="1.25" height="1.25" transform="translate(748 10)" fill="white"/>
<rect width="1.25" height="1.25" transform="translate(748 11.25)" fill="white"/>
<rect width="1.25" height="1.25" transform="translate(748 12.5)" fill="white"/>
<rect width="1.25" height="1.25" transform="translate(748 13.75)" fill="white"/>
<rect width="1.25" height="1.25" transform="translate(748 15)" fill="white"/>
<rect width="1.25" height="1.25" transform="translate(748 16.25)" fill="white"/>
<rect width="1.25" height="1.25" transform="translate(748 17.5)" fill="white"/>
<rect width="1.25" height="1.25" transform="translate(748 18.75)" fill="white"/>
<rect width="1.25" height="1.25" transform="translate(748 20)" fill="white"/>
<rect width="1.25" height="1.25" transform="translate(748 21.25)" fill="white"/>
<rect width="1.25" height="1.25" transform="translate(748 22.5)" fill="white"/>
<rect width="1.25" height="1.25" transform="translate(748 23.75)" fill="white"/>
<rect width="1.25" height="1.25" transform="translate(748 25)" fill="white"/>
<rect width="1.25" height="1.25" transform="translate(748 26.25)" fill="white"/>
<rect width="1.25" height="1.25" transform="translate(748 27.5)" fill="white"/>
<rect width="1.25" height="1.25" transform="translate(748 28.75)" fill="white"/>
<rect width="1.25" height="1.25" transform="translate(748 30)" fill="white"/>
<rect width="1.25" height="1.25" transform="translate(748 31.25)" fill="white"/>
<rect width="1.25" height="1.25" transform="translate(748 32.5)" fill="white"/>
<rect width="1.25" height="1.25" transform="translate(748 33.75)" fill="white"/>
<rect width="1.25" height="1.25" transform="translate(748 35)" fill="white"/>
<rect width="1.25" height="1.25" transform="translate(748 36.25)" fill="white"/>
<rect width="1.25" height="1.25" transform="translate(748 37.5)" fill="white"/>
<rect width="1.25" height="1.25" transform="translate(748 38.75)" fill="white"/>
<rect width="1.25" height="1.25" transform="translate(749.25 10)" fill="white"/>
<rect width="1.25" height="1.25" transform="translate(749.25 11.25)" fill="white"/>
<rect width="1.25" height="1.25" transform="translate(749.25 12.5)" fill="white"/>
<rect width="1.25" height="1.25" transform="translate(749.25 13.75)" fill="white"/>
<rect width="1.25" height="1.25" transform="translate(749.25 15)" fill="white"/>
<rect width="1.25" height="1.25" transform="translate(749.25 16.25)" fill="white"/>
<rect width="1.25" height="1.25" transform="translate(749.25 17.5)" fill="white"/>
<rect width="1.25" height="1.25" transform="translate(749.25 18.75)" fill="white"/>
<rect width="1.25" height="1.25" transform="translate(749.25 20)" fill="white"/>
<rect width="1.25" height="1.25" transform="translate(749.25 21.25)" fill="white"/>
<rect width="1.25" height="1.25" transform="translate(749.25 22.5)" fill="white"/>
<rect width="1.25" height="1.25" transform="translate(749.25 23.75)" fill="white"/>
<rect width="1.25" height="1.25" transform="translate(749.25 25)" fill="white"/>
<rect width="1.25" height="1.25" transform="translate(749.25 26.25)" fill="white"/>
<rect width="1.25" height="1.25" transform="translate(749.25 27.5)" fill="white"/>
<rect width="1.25" height="1.25" transform="translate(749.25 28.75)" fill="white"/>
<rect width="1.25" height="1.25" transform="translate(749.25 30)" fill="white"/>
<rect width="1.25" height="1.25" transform="translate(749.25 31.25)" fill="white"/>
<rect width="1.25" height="1.25" transform="translate(749.25 32.5)" fill="white"/>
<rect width="1.25" height="1.25" transform="translate(749.25 33.75)" fill="white"/>
<rect width="1.25" height="1.25" transform="translate(749.25 35)" fill="white"/>
<rect width="1.25" height="1.25" transform="translate(749.25 36.25)" fill="white"/>
<rect width="1.25" height="1.25" transform="translate(749.25 37.5)" fill="white"/>
<rect width="1.25" height="1.25" transform="translate(749.25 38.75)" fill="white"/>
<rect width="1.25" height="1.25" transform="translate(750.5 10)" fill="white"/>
<rect width="1.25" height="1.25" transform="translate(750.5 11.25)" fill="white"/>
<rect width="1.25" height="1.25" transform="translate(750.5 12.5)" fill="white"/>
<rect width="1.25" height="1.25" transform="translate(750.5 13.75)" fill="black"/>
<rect width="1.25" height="1.25" transform="translate(750.5 15)" fill="white"/>
<rect width="1.25" height="1.25" transform="translate(750.5 16.25)" fill="white"/>
<rect width="1.25" height="1.25" transform="translate(750.5 17.5)" fill="white"/>
<rect width="1.25" height="1.25" transform="translate(750.5 18.75)" fill="white"/>
<rect width="1.25" height="1.25" transform="translate(750.5 20)" fill="white"/>
<rect width="1.25" height="1.25" transform="translate(750.5 21.25)" fill="white"/>
<rect width="1.25" height="1.25" transform="translate(750.5 22.5)" fill="white"/>
<rect width="1.25" height="1.25" transform="translate(750.5 23.75)" fill="white"/>
<rect width="1.25" height="1.25" transform="translate(750.5 25)" fill="white"/>
<rect width="1.25" height="1.25" transform="translate(750.5 26.25)" fill="white"/>
<rect width="1.25" height="1.25" transform="translate(750.5 27.5)" fill="white"/>
<rect width="1.25" height="1.25" transform="translate(750.5 28.75)" fill="white"/>
<rect width="1.25" height="1.25" transform="translate(750.5 30)" fill="white"/>
<rect width="1.25" height="1.25" transform="translate(750.5 31.25)" fill="white"/>
<rect width="1.25" height="1.25" transform="translate(750.5 32.5)" fill="white"/>
<rect width="1.25" height="1.25" transform="translate(750.5 33.75)" fill="white"/>
<rect width="1.25" height="1.25" transform="translate(750.5 35)" fill="white"/>
<rect width="1.25" height="1.25" transform="translate(750.5 36.25)" fill="white"/>
<rect width="1.25" height="1.25" transform="translate(750.5 37.5)" fill="white"/>
<rect width="1.25" height="1.25" transform="translate(750.5 38.75)" fill="white"/>
<rect width="1.25" height="1.25" transform="translate(751.75 10)" fill="white"/>
<rect width="1.25" height="1.25" transform="translate(751.75 11.25)" fill="white"/>
<rect width="1.25" height="1.25" transform="translate(751.75 12.5)" fill="black"/>
<rect width="1.25" height="1.25" transform="translate(751.75 13.75)" fill="#AFCA8A"/>
<rect width="1.25" height="1.25" transform="translate(751.75 15)" fill="black"/>
<rect width="1.25" height="1.25" transform="translate(751.75 16.25)" fill="black"/>
<rect width="1.25" height="1.25" transform="translate(751.75 17.5)" fill="white"/>
<rect width="1.25" height="1.25" transform="translate(751.75 18.75)" fill="white"/>
<rect width="1.25" height="1.25" transform="translate(751.75 20)" fill="white"/>
<rect width="1.25" height="1.25" transform="translate(751.75 21.25)" fill="white"/>
<rect width="1.25" height="1.25" transform="translate(751.75 22.5)" fill="white"/>
<rect width="1.25" height="1.25" transform="translate(751.75 23.75)" fill="white"/>
<rect width="1.25" height="1.25" transform="translate(751.75 25)" fill="white"/>
<rect width="1.25" height="1.25" transform="translate(751.75 26.25)" fill="black"/>
<rect width="1.25" height="1.25" transform="translate(751.75 27.5)" fill="black"/>
<rect width="1.25" height="1.25" transform="translate(751.75 28.75)" fill="black"/>
<rect width="1.25" height="1.25" transform="translate(751.75 30)" fill="black"/>
<rect width="1.25" height="1.25" transform="translate(751.75 31.25)" fill="black"/>
<rect width="1.25" height="1.25" transform="translate(751.75 32.5)" fill="white"/>
<rect width="1.25" height="1.25" transform="translate(751.75 33.75)" fill="white"/>
<rect width="1.25" height="1.25" transform="translate(751.75 35)" fill="white"/>
<rect width="1.25" height="1.25" transform="translate(751.75 36.25)" fill="white"/>
<rect width="1.25" height="1.25" transform="translate(751.75 37.5)" fill="white"/>
<rect width="1.25" height="1.25" transform="translate(751.75 38.75)" fill="white"/>
<rect width="1.25" height="1.25" transform="translate(753 10)" fill="white"/>
<rect width="1.25" height="1.25" transform="translate(753 11.25)" fill="white"/>
<rect width="1.25" height="1.25" transform="translate(753 12.5)" fill="black"/>
<rect width="1.25" height="1.25" transform="translate(753 13.75)" fill="#AFCA8A"/>
<rect width="1.25" height="1.25" transform="translate(753 15)" fill="#AFCA8A"/>
<rect width="1.25" height="1.25" transform="translate(753 16.25)" fill="#608438"/>
<rect width="1.25" height="1.25" transform="translate(753 17.5)" fill="black"/>
<rect width="1.25" height="1.25" transform="translate(753 18.75)" fill="black"/>
<rect width="1.25" height="1.25" transform="translate(753 20)" fill="white"/>
<rect width="1.25" height="1.25" transform="translate(753 21.25)" fill="white"/>
<rect width="1.25" height="1.25" transform="translate(753 22.5)" fill="white"/>
<rect width="1.25" height="1.25" transform="translate(753 23.75)" fill="white"/>
<rect width="1.25" height="1.25" transform="translate(753 25)" fill="black"/>
<rect width="1.25" height="1.25" transform="translate(753 26.25)" fill="#992231"/>
<rect width="1.25" height="1.25" transform="translate(753 27.5)" fill="#992231"/>
<rect width="1.25" height="1.25" transform="translate(753 28.75)" fill="#D41730"/>
<rect width="1.25" height="1.25" transform="translate(753 30)" fill="#992231"/>
<rect width="1.25" height="1.25" transform="translate(753 31.25)" fill="#992231"/>
<rect width="1.25" height="1.25" transform="translate(753 32.5)" fill="black"/>
<rect width="1.25" height="1.25" transform="translate(753 33.75)" fill="black"/>
<rect width="1.25" height="1.25" transform="translate(753 35)" fill="white"/>
<rect width="1.25" height="1.25" transform="translate(753 36.25)" fill="white"/>
<rect width="1.25" height="1.25" transform="translate(753 37.5)" fill="white"/>
<rect width="1.25" height="1.25" transform="translate(753 38.75)" fill="white"/>
<rect width="1.25" height="1.25" transform="translate(754.25 10)" fill="white"/>
<rect width="1.25" height="1.25" transform="translate(754.25 11.25)" fill="black"/>
<rect width="1.25" height="1.25" transform="translate(754.25 12.5)" fill="#608438"/>
<rect width="1.25" height="1.25" transform="translate(754.25 13.75)" fill="#AFCA8A"/>
<rect width="1.25" height="1.25" transform="translate(754.25 15)" fill="#AFCA8A"/>
<rect width="1.25" height="1.25" transform="translate(754.25 16.25)" fill="#AFCA8A"/>
<rect width="1.25" height="1.25" transform="translate(754.25 17.5)" fill="#608438"/>
<rect width="1.25" height="1.25" transform="translate(754.25 18.75)" fill="#608438"/>
<rect width="1.25" height="1.25" transform="translate(754.25 20)" fill="black"/>
<rect width="1.25" height="1.25" transform="translate(754.25 21.25)" fill="black"/>
<rect width="1.25" height="1.25" transform="translate(754.25 22.5)" fill="black"/>
<rect width="1.25" height="1.25" transform="translate(754.25 23.75)" fill="black"/>
<rect width="1.25" height="1.25" transform="translate(754.25 25)" fill="#D41730"/>
<rect width="1.25" height="1.25" transform="translate(754.25 26.25)" fill="#D41730"/>
<rect width="1.25" height="1.25" transform="translate(754.25 27.5)" fill="#FA8599"/>
<rect width="1.25" height="1.25" transform="translate(754.25 28.75)" fill="#D41730"/>
<rect width="1.25" height="1.25" transform="translate(754.25 30)" fill="#D41730"/>
<rect width="1.25" height="1.25" transform="translate(754.25 31.25)" fill="#D41730"/>
<rect width="1.25" height="1.25" transform="translate(754.25 32.5)" fill="#992231"/>
<rect width="1.25" height="1.25" transform="translate(754.25 33.75)" fill="#992231"/>
<rect width="1.25" height="1.25" transform="translate(754.25 35)" fill="black"/>
<rect width="1.25" height="1.25" transform="translate(754.25 36.25)" fill="white"/>
<rect width="1.25" height="1.25" transform="translate(754.25 37.5)" fill="white"/>
<rect width="1.25" height="1.25" transform="translate(754.25 38.75)" fill="white"/>
<rect width="1.25" height="1.25" transform="translate(755.5 10)" fill="white"/>
<rect width="1.25" height="1.25" transform="translate(755.5 11.25)" fill="black"/>
<rect width="1.25" height="1.25" transform="translate(755.5 12.5)" fill="#608438"/>
<rect width="1.25" height="1.25" transform="translate(755.5 13.75)" fill="#608438"/>
<rect width="1.25" height="1.25" transform="translate(755.5 15)" fill="#AFCA8A"/>
<rect width="1.25" height="1.25" transform="translate(755.5 16.25)" fill="#AFCA8A"/>
<rect width="1.25" height="1.25" transform="translate(755.5 17.5)" fill="black"/>
<rect width="1.25" height="1.25" transform="translate(755.5 18.75)" fill="black"/>
<rect width="1.25" height="1.25" transform="translate(755.5 20)" fill="#608438"/>
<rect width="1.25" height="1.25" transform="translate(755.5 21.25)" fill="#608438"/>
<rect width="1.25" height="1.25" transform="translate(755.5 22.5)" fill="#608438"/>
<rect width="1.25" height="1.25" transform="translate(755.5 23.75)" fill="black"/>
<rect width="1.25" height="1.25" transform="translate(755.5 25)" fill="#D41730"/>
<rect width="1.25" height="1.25" transform="translate(755.5 26.25)" fill="#FA8599"/>
<rect width="1.25" height="1.25" transform="translate(755.5 27.5)" fill="#FA8599"/>
<rect width="1.25" height="1.25" transform="translate(755.5 28.75)" fill="#FA8599"/>
<rect width="1.25" height="1.25" transform="translate(755.5 30)" fill="#D41730"/>
<rect width="1.25" height="1.25" transform="translate(755.5 31.25)" fill="#D41730"/>
<rect width="1.25" height="1.25" transform="translate(755.5 32.5)" fill="#992231"/>
<rect width="1.25" height="1.25" transform="translate(755.5 33.75)" fill="#992231"/>
<rect width="1.25" height="1.25" transform="translate(755.5 35)" fill="#992231"/>
<rect width="1.25" height="1.25" transform="translate(755.5 36.25)" fill="black"/>
<rect width="1.25" height="1.25" transform="translate(755.5 37.5)" fill="white"/>
<rect width="1.25" height="1.25" transform="translate(755.5 38.75)" fill="white"/>
<rect width="1.25" height="1.25" transform="translate(756.75 10)" fill="white"/>
<rect width="1.25" height="1.25" transform="translate(756.75 11.25)" fill="black"/>
<rect width="1.25" height="1.25" transform="translate(756.75 12.5)" fill="#608438"/>
<rect width="1.25" height="1.25" transform="translate(756.75 13.75)" fill="#608438"/>
<rect width="1.25" height="1.25" transform="translate(756.75 15)" fill="#AFCA8A"/>
<rect width="1.25" height="1.25" transform="translate(756.75 16.25)" fill="#AFCA8A"/>
<rect width="1.25" height="1.25" transform="translate(756.75 17.5)" fill="#AFCA8A"/>
<rect width="1.25" height="1.25" transform="translate(756.75 18.75)" fill="black"/>
<rect width="1.25" height="1.25" transform="translate(756.75 20)" fill="black"/>
<rect width="1.25" height="1.25" transform="translate(756.75 21.25)" fill="black"/>
<rect width="1.25" height="1.25" transform="translate(756.75 22.5)" fill="black"/>
<rect width="1.25" height="1.25" transform="translate(756.75 23.75)" fill="#608438"/>
<rect width="1.25" height="1.25" transform="translate(756.75 25)" fill="#D41730"/>
<rect width="1.25" height="1.25" transform="translate(756.75 26.25)" fill="#FA8599"/>
<rect width="1.25" height="1.25" transform="translate(756.75 27.5)" fill="#FA8599"/>
<rect width="1.25" height="1.25" transform="translate(756.75 28.75)" fill="#FA8599"/>
<rect width="1.25" height="1.25" transform="translate(756.75 30)" fill="#D41730"/>
<rect width="1.25" height="1.25" transform="translate(756.75 31.25)" fill="#D41730"/>
<rect width="1.25" height="1.25" transform="translate(756.75 32.5)" fill="#992231"/>
<rect width="1.25" height="1.25" transform="translate(756.75 33.75)" fill="#992231"/>
<rect width="1.25" height="1.25" transform="translate(756.75 35)" fill="#992231"/>
<rect width="1.25" height="1.25" transform="translate(756.75 36.25)" fill="black"/>
<rect width="1.25" height="1.25" transform="translate(756.75 37.5)" fill="white"/>
<rect width="1.25" height="1.25" transform="translate(756.75 38.75)" fill="white"/>
<rect width="1.25" height="1.25" transform="translate(758 10)" fill="white"/>
<rect width="1.25" height="1.25" transform="translate(758 11.25)" fill="black"/>
<rect width="1.25" height="1.25" transform="translate(758 12.5)" fill="#608438"/>
<rect width="1.25" height="1.25" transform="translate(758 13.75)" fill="#608438"/>
<rect width="1.25" height="1.25" transform="translate(758 15)" fill="#AFCA8A"/>
<rect width="1.25" height="1.25" transform="translate(758 16.25)" fill="#AFCA8A"/>
<rect width="1.25" height="1.25" transform="translate(758 17.5)" fill="#AFCA8A"/>
<rect width="1.25" height="1.25" transform="translate(758 18.75)" fill="black"/>
<rect width="1.25" height="1.25" transform="translate(758 20)" fill="white"/>
<rect width="1.25" height="1.25" transform="translate(758 21.25)" fill="white"/>
<rect width="1.25" height="1.25" transform="translate(758 22.5)" fill="black"/>
<rect width="1.25" height="1.25" transform="translate(758 23.75)" fill="#D41730"/>
<rect width="1.25" height="1.25" transform="translate(758 25)" fill="#FA8599"/>
<rect width="1.25" height="1.25" transform="translate(758 26.25)" fill="#FA8599"/>
<rect width="1.25" height="1.25" transform="translate(758 27.5)" fill="#FA8599"/>
<rect width="1.25" height="1.25" transform="translate(758 28.75)" fill="#FA8599"/>
<rect width="1.25" height="1.25" transform="translate(758 30)" fill="#D41730"/>
<rect width="1.25" height="1.25" transform="translate(758 31.25)" fill="#D41730"/>
<rect width="1.25" height="1.25" transform="translate(758 32.5)" fill="#992231"/>
<rect width="1.25" height="1.25" transform="translate(758 33.75)" fill="#992231"/>
<rect width="1.25" height="1.25" transform="translate(758 35)" fill="#992231"/>
<rect width="1.25" height="1.25" transform="translate(758 36.25)" fill="black"/>
<rect width="1.25" height="1.25" transform="translate(758 37.5)" fill="white"/>
<rect width="1.25" height="1.25" transform="translate(758 38.75)" fill="white"/>
<rect width="1.25" height="1.25" transform="translate(759.25 10)" fill="white"/>
<rect width="1.25" height="1.25" transform="translate(759.25 11.25)" fill="black"/>
<rect width="1.25" height="1.25" transform="translate(759.25 12.5)" fill="#466027"/>
<rect width="1.25" height="1.25" transform="translate(759.25 13.75)" fill="#608438"/>
<rect width="1.25" height="1.25" transform="translate(759.25 15)" fill="#AFCA8A"/>
<rect width="1.25" height="1.25" transform="translate(759.25 16.25)" fill="#AFCA8A"/>
<rect width="1.25" height="1.25" transform="translate(759.25 17.5)" fill="#AFCA8A"/>
<rect width="1.25" height="1.25" transform="translate(759.25 18.75)" fill="#608438"/>
<rect width="1.25" height="1.25" transform="translate(759.25 20)" fill="black"/>
<rect width="1.25" height="1.25" transform="translate(759.25 21.25)" fill="white"/>
<rect width="1.25" height="1.25" transform="translate(759.25 22.5)" fill="black"/>
<rect width="1.25" height="1.25" transform="translate(759.25 23.75)" fill="#D41730"/>
<rect width="1.25" height="1.25" transform="translate(759.25 25)" fill="#D41730"/>
<rect width="1.25" height="1.25" transform="translate(759.25 26.25)" fill="#D41730"/>
<rect width="1.25" height="1.25" transform="translate(759.25 27.5)" fill="#FA8599"/>
<rect width="1.25" height="1.25" transform="translate(759.25 28.75)" fill="#FA8599"/>
<rect width="1.25" height="1.25" transform="translate(759.25 30)" fill="#D41730"/>
<rect width="1.25" height="1.25" transform="translate(759.25 31.25)" fill="#D41730"/>
<rect width="1.25" height="1.25" transform="translate(759.25 32.5)" fill="#992231"/>
<rect width="1.25" height="1.25" transform="translate(759.25 33.75)" fill="#992231"/>
<rect width="1.25" height="1.25" transform="translate(759.25 35)" fill="#D41730"/>
<rect width="1.25" height="1.25" transform="translate(759.25 36.25)" fill="black"/>
<rect width="1.25" height="1.25" transform="translate(759.25 37.5)" fill="white"/>
<rect width="1.25" height="1.25" transform="translate(759.25 38.75)" fill="white"/>
<rect width="1.25" height="1.25" transform="translate(760.5 10)" fill="white"/>
<rect width="1.25" height="1.25" transform="translate(760.5 11.25)" fill="black"/>
<rect width="1.25" height="1.25" transform="translate(760.5 12.5)" fill="#466027"/>
<rect width="1.25" height="1.25" transform="translate(760.5 13.75)" fill="#466027"/>
<rect width="1.25" height="1.25" transform="translate(760.5 15)" fill="#AFCA8A"/>
<rect width="1.25" height="1.25" transform="translate(760.5 16.25)" fill="#AFCA8A"/>
<rect width="1.25" height="1.25" transform="translate(760.5 17.5)" fill="#AFCA8A"/>
<rect width="1.25" height="1.25" transform="translate(760.5 18.75)" fill="black"/>
<rect width="1.25" height="1.25" transform="translate(760.5 20)" fill="#608438"/>
<rect width="1.25" height="1.25" transform="translate(760.5 21.25)" fill="black"/>
<rect width="1.25" height="1.25" transform="translate(760.5 22.5)" fill="black"/>
<rect width="1.25" height="1.25" transform="translate(760.5 23.75)" fill="#D41730"/>
<rect width="1.25" height="1.25" transform="translate(760.5 25)" fill="#D41730"/>
<rect width="1.25" height="1.25" transform="translate(760.5 26.25)" fill="#D41730"/>
<rect width="1.25" height="1.25" transform="translate(760.5 27.5)" fill="#FA8599"/>
<rect width="1.25" height="1.25" transform="translate(760.5 28.75)" fill="#FA8599"/>
<rect width="1.25" height="1.25" transform="translate(760.5 30)" fill="#D41730"/>
<rect width="1.25" height="1.25" transform="translate(760.5 31.25)" fill="#D41730"/>
<rect width="1.25" height="1.25" transform="translate(760.5 32.5)" fill="#992231"/>
<rect width="1.25" height="1.25" transform="translate(760.5 33.75)" fill="#D41730"/>
<rect width="1.25" height="1.25" transform="translate(760.5 35)" fill="#D41730"/>
<rect width="1.25" height="1.25" transform="translate(760.5 36.25)" fill="black"/>
<rect width="1.25" height="1.25" transform="translate(760.5 37.5)" fill="white"/>
<rect width="1.25" height="1.25" transform="translate(760.5 38.75)" fill="white"/>
<rect width="1.25" height="1.25" transform="translate(761.75 10)" fill="white"/>
<rect width="1.25" height="1.25" transform="translate(761.75 11.25)" fill="black"/>
<rect width="1.25" height="1.25" transform="translate(761.75 12.5)" fill="#466027"/>
<rect width="1.25" height="1.25" transform="translate(761.75 13.75)" fill="#466027"/>
<rect width="1.25" height="1.25" transform="translate(761.75 15)" fill="#608438"/>
<rect width="1.25" height="1.25" transform="translate(761.75 16.25)" fill="#AFCA8A"/>
<rect width="1.25" height="1.25" transform="translate(761.75 17.5)" fill="#AFCA8A"/>
<rect width="1.25" height="1.25" transform="translate(761.75 18.75)" fill="black"/>
<rect width="1.25" height="1.25" transform="translate(761.75 20)" fill="black"/>
<rect width="1.25" height="1.25" transform="translate(761.75 21.25)" fill="#608438"/>
<rect width="1.25" height="1.25" transform="translate(761.75 22.5)" fill="black"/>
<rect width="1.25" height="1.25" transform="translate(761.75 23.75)" fill="black"/>
<rect width="1.25" height="1.25" transform="translate(761.75 25)" fill="#D41730"/>
<rect width="1.25" height="1.25" transform="translate(761.75 26.25)" fill="#D41730"/>
<rect width="1.25" height="1.25" transform="translate(761.75 27.5)" fill="#D41730"/>
<rect width="1.25" height="1.25" transform="translate(761.75 28.75)" fill="#D41730"/>
<rect width="1.25" height="1.25" transform="translate(761.75 30)" fill="#D41730"/>
<rect width="1.25" height="1.25" transform="translate(761.75 31.25)" fill="#992231"/>
<rect width="1.25" height="1.25" transform="translate(761.75 32.5)" fill="#992231"/>
<rect width="1.25" height="1.25" transform="translate(761.75 33.75)" fill="#D41730"/>
<rect width="1.25" height="1.25" transform="translate(761.75 35)" fill="black"/>
<rect width="1.25" height="1.25" transform="translate(761.75 36.25)" fill="white"/>
<rect width="1.25" height="1.25" transform="translate(761.75 37.5)" fill="white"/>
<rect width="1.25" height="1.25" transform="translate(761.75 38.75)" fill="white"/>
<rect width="1.25" height="1.25" transform="translate(763 10)" fill="white"/>
<rect width="1.25" height="1.25" transform="translate(763 11.25)" fill="white"/>
<rect width="1.25" height="1.25" transform="translate(763 12.5)" fill="black"/>
<rect width="1.25" height="1.25" transform="translate(763 13.75)" fill="#466027"/>
<rect width="1.25" height="1.25" transform="translate(763 15)" fill="#608438"/>
<rect width="1.25" height="1.25" transform="translate(763 16.25)" fill="#AFCA8A"/>
<rect width="1.25" height="1.25" transform="translate(763 17.5)" fill="#AFCA8A"/>
<rect width="1.25" height="1.25" transform="translate(763 18.75)" fill="black"/>
<rect width="1.25" height="1.25" transform="translate(763 20)" fill="white"/>
<rect width="1.25" height="1.25" transform="translate(763 21.25)" fill="black"/>
<rect width="1.25" height="1.25" transform="translate(763 22.5)" fill="#608438"/>
<rect width="1.25" height="1.25" transform="translate(763 23.75)" fill="#992231"/>
<rect width="1.25" height="1.25" transform="translate(763 25)" fill="#992231"/>
<rect width="1.25" height="1.25" transform="translate(763 26.25)" fill="#D41730"/>
<rect width="1.25" height="1.25" transform="translate(763 27.5)" fill="#D41730"/>
<rect width="1.25" height="1.25" transform="translate(763 28.75)" fill="#D41730"/>
<rect width="1.25" height="1.25" transform="translate(763 30)" fill="#D41730"/>
<rect width="1.25" height="1.25" transform="translate(763 31.25)" fill="#D41730"/>
<rect width="1.25" height="1.25" transform="translate(763 32.5)" fill="#D41730"/>
<rect width="1.25" height="1.25" transform="translate(763 33.75)" fill="#D41730"/>
<rect width="1.25" height="1.25" transform="translate(763 35)" fill="black"/>
<rect width="1.25" height="1.25" transform="translate(763 36.25)" fill="white"/>
<rect width="1.25" height="1.25" transform="translate(763 37.5)" fill="white"/>
<rect width="1.25" height="1.25" transform="translate(763 38.75)" fill="white"/>
<rect width="1.25" height="1.25" transform="translate(764.25 10)" fill="white"/>
<rect width="1.25" height="1.25" transform="translate(764.25 11.25)" fill="white"/>
<rect width="1.25" height="1.25" transform="translate(764.25 12.5)" fill="black"/>
<rect width="1.25" height="1.25" transform="translate(764.25 13.75)" fill="#466027"/>
<rect width="1.25" height="1.25" transform="translate(764.25 15)" fill="#608438"/>
<rect width="1.25" height="1.25" transform="translate(764.25 16.25)" fill="#AFCA8A"/>
<rect width="1.25" height="1.25" transform="translate(764.25 17.5)" fill="black"/>
<rect width="1.25" height="1.25" transform="translate(764.25 18.75)" fill="white"/>
<rect width="1.25" height="1.25" transform="translate(764.25 20)" fill="white"/>
<rect width="1.25" height="1.25" transform="translate(764.25 21.25)" fill="white"/>
<rect width="1.25" height="1.25" transform="translate(764.25 22.5)" fill="black"/>
<rect width="1.25" height="1.25" transform="translate(764.25 23.75)" fill="#608438"/>
<rect width="1.25" height="1.25" transform="translate(764.25 25)" fill="#992231"/>
<rect width="1.25" height="1.25" transform="translate(764.25 26.25)" fill="#D41730"/>
<rect width="1.25" height="1.25" transform="translate(764.25 27.5)" fill="#D41730"/>
<rect width="1.25" height="1.25" transform="translate(764.25 28.75)" fill="#D41730"/>
<rect width="1.25" height="1.25" transform="translate(764.25 30)" fill="#D41730"/>
<rect width="1.25" height="1.25" transform="translate(764.25 31.25)" fill="#D41730"/>
<rect width="1.25" height="1.25" transform="translate(764.25 32.5)" fill="#D41730"/>
<rect width="1.25" height="1.25" transform="translate(764.25 33.75)" fill="#992231"/>
<rect width="1.25" height="1.25" transform="translate(764.25 35)" fill="black"/>
<rect width="1.25" height="1.25" transform="translate(764.25 36.25)" fill="white"/>
<rect width="1.25" height="1.25" transform="translate(764.25 37.5)" fill="white"/>
<rect width="1.25" height="1.25" transform="translate(764.25 38.75)" fill="white"/>
<rect width="1.25" height="1.25" transform="translate(765.5 10)" fill="white"/>
<rect width="1.25" height="1.25" transform="translate(765.5 11.25)" fill="white"/>
<rect width="1.25" height="1.25" transform="translate(765.5 12.5)" fill="white"/>
<rect width="1.25" height="1.25" transform="translate(765.5 13.75)" fill="black"/>
<rect width="1.25" height="1.25" transform="translate(765.5 15)" fill="#466027"/>
<rect width="1.25" height="1.25" transform="translate(765.5 16.25)" fill="#AFCA8A"/>
<rect width="1.25" height="1.25" transform="translate(765.5 17.5)" fill="black"/>
<rect width="1.25" height="1.25" transform="translate(765.5 18.75)" fill="white"/>
<rect width="1.25" height="1.25" transform="translate(765.5 20)" fill="white"/>
<rect width="1.25" height="1.25" transform="translate(765.5 21.25)" fill="white"/>
<rect width="1.25" height="1.25" transform="translate(765.5 22.5)" fill="black"/>
<rect width="1.25" height="1.25" transform="translate(765.5 23.75)" fill="#992231"/>
<rect width="1.25" height="1.25" transform="translate(765.5 25)" fill="#992231"/>
<rect width="1.25" height="1.25" transform="translate(765.5 26.25)" fill="#992231"/>
<rect width="1.25" height="1.25" transform="translate(765.5 27.5)" fill="#992231"/>
<rect width="1.25" height="1.25" transform="translate(765.5 28.75)" fill="#992231"/>
<rect width="1.25" height="1.25" transform="translate(765.5 30)" fill="#992231"/>
<rect width="1.25" height="1.25" transform="translate(765.5 31.25)" fill="#992231"/>
<rect width="1.25" height="1.25" transform="translate(765.5 32.5)" fill="#992231"/>
<rect width="1.25" height="1.25" transform="translate(765.5 33.75)" fill="#992231"/>
<rect width="1.25" height="1.25" transform="translate(765.5 35)" fill="#992231"/>
<rect width="1.25" height="1.25" transform="translate(765.5 36.25)" fill="black"/>
<rect width="1.25" height="1.25" transform="translate(765.5 37.5)" fill="white"/>
<rect width="1.25" height="1.25" transform="translate(765.5 38.75)" fill="white"/>
<rect width="1.25" height="1.25" transform="translate(766.75 10)" fill="white"/>
<rect width="1.25" height="1.25" transform="translate(766.75 11.25)" fill="white"/>
<rect width="1.25" height="1.25" transform="translate(766.75 12.5)" fill="white"/>
<rect width="1.25" height="1.25" transform="translate(766.75 13.75)" fill="black"/>
<rect width="1.25" height="1.25" transform="translate(766.75 15)" fill="#466027"/>
<rect width="1.25" height="1.25" transform="translate(766.75 16.25)" fill="#608438"/>
<rect width="1.25" height="1.25" transform="translate(766.75 17.5)" fill="black"/>
<rect width="1.25" height="1.25" transform="translate(766.75 18.75)" fill="white"/>
<rect width="1.25" height="1.25" transform="translate(766.75 20)" fill="white"/>
<rect width="1.25" height="1.25" transform="translate(766.75 21.25)" fill="white"/>
<rect width="1.25" height="1.25" transform="translate(766.75 22.5)" fill="black"/>
<rect width="1.25" height="1.25" transform="translate(766.75 23.75)" fill="#992231"/>
<rect width="1.25" height="1.25" transform="translate(766.75 25)" fill="#992231"/>
<rect width="1.25" height="1.25" transform="translate(766.75 26.25)" fill="#FA8599"/>
<rect width="1.25" height="1.25" transform="translate(766.75 27.5)" fill="#FA8599"/>
<rect width="1.25" height="1.25" transform="translate(766.75 28.75)" fill="#D41730"/>
<rect width="1.25" height="1.25" transform="translate(766.75 30)" fill="#D41730"/>
<rect width="1.25" height="1.25" transform="translate(766.75 31.25)" fill="#D41730"/>
<rect width="1.25" height="1.25" transform="translate(766.75 32.5)" fill="#D41730"/>
<rect width="1.25" height="1.25" transform="translate(766.75 33.75)" fill="#992231"/>
<rect width="1.25" height="1.25" transform="translate(766.75 35)" fill="#992231"/>
<rect width="1.25" height="1.25" transform="translate(766.75 36.25)" fill="black"/>
<rect width="1.25" height="1.25" transform="translate(766.75 37.5)" fill="white"/>
<rect width="1.25" height="1.25" transform="translate(766.75 38.75)" fill="white"/>
<rect width="1.25" height="1.25" transform="translate(768 10)" fill="white"/>
<rect width="1.25" height="1.25" transform="translate(768 11.25)" fill="white"/>
<rect width="1.25" height="1.25" transform="translate(768 12.5)" fill="white"/>
<rect width="1.25" height="1.25" transform="translate(768 13.75)" fill="white"/>
<rect width="1.25" height="1.25" transform="translate(768 15)" fill="black"/>
<rect width="1.25" height="1.25" transform="translate(768 16.25)" fill="black"/>
<rect width="1.25" height="1.25" transform="translate(768 17.5)" fill="white"/>
<rect width="1.25" height="1.25" transform="translate(768 18.75)" fill="white"/>
<rect width="1.25" height="1.25" transform="translate(768 20)" fill="white"/>
<rect width="1.25" height="1.25" transform="translate(768 21.25)" fill="white"/>
<rect width="1.25" height="1.25" transform="translate(768 22.5)" fill="black"/>
<rect width="1.25" height="1.25" transform="translate(768 23.75)" fill="#992231"/>
<rect width="1.25" height="1.25" transform="translate(768 25)" fill="#FA8599"/>
<rect width="1.25" height="1.25" transform="translate(768 26.25)" fill="#FA8599"/>
<rect width="1.25" height="1.25" transform="translate(768 27.5)" fill="#FA8599"/>
<rect width="1.25" height="1.25" transform="translate(768 28.75)" fill="#D41730"/>
<rect width="1.25" height="1.25" transform="translate(768 30)" fill="#D41730"/>
<rect width="1.25" height="1.25" transform="translate(768 31.25)" fill="#D41730"/>
<rect width="1.25" height="1.25" transform="translate(768 32.5)" fill="#D41730"/>
<rect width="1.25" height="1.25" transform="translate(768 33.75)" fill="#992231"/>
<rect width="1.25" height="1.25" transform="translate(768 35)" fill="#992231"/>
<rect width="1.25" height="1.25" transform="translate(768 36.25)" fill="black"/>
<rect width="1.25" height="1.25" transform="translate(768 37.5)" fill="white"/>
<rect width="1.25" height="1.25" transform="translate(768 38.75)" fill="white"/>
<rect width="1.25" height="1.25" transform="translate(769.25 10)" fill="white"/>
<rect width="1.25" height="1.25" transform="translate(769.25 11.25)" fill="white"/>
<rect width="1.25" height="1.25" transform="translate(769.25 12.5)" fill="white"/>
<rect width="1.25" height="1.25" transform="translate(769.25 13.75)" fill="white"/>
<rect width="1.25" height="1.25" transform="translate(769.25 15)" fill="white"/>
<rect width="1.25" height="1.25" transform="translate(769.25 16.25)" fill="white"/>
<rect width="1.25" height="1.25" transform="translate(769.25 17.5)" fill="white"/>
<rect width="1.25" height="1.25" transform="translate(769.25 18.75)" fill="white"/>
<rect width="1.25" height="1.25" transform="translate(769.25 20)" fill="white"/>
<rect width="1.25" height="1.25" transform="translate(769.25 21.25)" fill="white"/>
<rect width="1.25" height="1.25" transform="translate(769.25 22.5)" fill="black"/>
<rect width="1.25" height="1.25" transform="translate(769.25 23.75)" fill="#992231"/>
<rect width="1.25" height="1.25" transform="translate(769.25 25)" fill="#D41730"/>
<rect width="1.25" height="1.25" transform="translate(769.25 26.25)" fill="#FA8599"/>
<rect width="1.25" height="1.25" transform="translate(769.25 27.5)" fill="#D41730"/>
<rect width="1.25" height="1.25" transform="translate(769.25 28.75)" fill="#D41730"/>
<rect width="1.25" height="1.25" transform="translate(769.25 30)" fill="#D41730"/>
<rect width="1.25" height="1.25" transform="translate(769.25 31.25)" fill="#D41730"/>
<rect width="1.25" height="1.25" transform="translate(769.25 32.5)" fill="#D41730"/>
<rect width="1.25" height="1.25" transform="translate(769.25 33.75)" fill="#992231"/>
<rect width="1.25" height="1.25" transform="translate(769.25 35)" fill="#992231"/>
<rect width="1.25" height="1.25" transform="translate(769.25 36.25)" fill="black"/>
<rect width="1.25" height="1.25" transform="translate(769.25 37.5)" fill="white"/>
<rect width="1.25" height="1.25" transform="translate(769.25 38.75)" fill="white"/>
<rect width="1.25" height="1.25" transform="translate(770.5 10)" fill="white"/>
<rect width="1.25" height="1.25" transform="translate(770.5 11.25)" fill="white"/>
<rect width="1.25" height="1.25" transform="translate(770.5 12.5)" fill="white"/>
<rect width="1.25" height="1.25" transform="translate(770.5 13.75)" fill="white"/>
<rect width="1.25" height="1.25" transform="translate(770.5 15)" fill="white"/>
<rect width="1.25" height="1.25" transform="translate(770.5 16.25)" fill="white"/>
<rect width="1.25" height="1.25" transform="translate(770.5 17.5)" fill="white"/>
<rect width="1.25" height="1.25" transform="translate(770.5 18.75)" fill="white"/>
<rect width="1.25" height="1.25" transform="translate(770.5 20)" fill="white"/>
<rect width="1.25" height="1.25" transform="translate(770.5 21.25)" fill="white"/>
<rect width="1.25" height="1.25" transform="translate(770.5 22.5)" fill="white"/>
<rect width="1.25" height="1.25" transform="translate(770.5 23.75)" fill="black"/>
<rect width="1.25" height="1.25" transform="translate(770.5 25)" fill="#D41730"/>
<rect width="1.25" height="1.25" transform="translate(770.5 26.25)" fill="#D41730"/>
<rect width="1.25" height="1.25" transform="translate(770.5 27.5)" fill="#D41730"/>
<rect width="1.25" height="1.25" transform="translate(770.5 28.75)" fill="#D41730"/>
<rect width="1.25" height="1.25" transform="translate(770.5 30)" fill="#D41730"/>
<rect width="1.25" height="1.25" transform="translate(770.5 31.25)" fill="#D41730"/>
<rect width="1.25" height="1.25" transform="translate(770.5 32.5)" fill="#992231"/>
<rect width="1.25" height="1.25" transform="translate(770.5 33.75)" fill="#992231"/>
<rect width="1.25" height="1.25" transform="translate(770.5 35)" fill="black"/>
<rect width="1.25" height="1.25" transform="translate(770.5 36.25)" fill="white"/>
<rect width="1.25" height="1.25" transform="translate(770.5 37.5)" fill="white"/>
<rect width="1.25" height="1.25" transform="translate(770.5 38.75)" fill="white"/>
<rect width="1.25" height="1.25" transform="translate(771.75 10)" fill="white"/>
<rect width="1.25" height="1.25" transform="translate(771.75 11.25)" fill="white"/>
<rect width="1.25" height="1.25" transform="translate(771.75 12.5)" fill="white"/>
<rect width="1.25" height="1.25" transform="translate(771.75 13.75)" fill="white"/>
<rect width="1.25" height="1.25" transform="translate(771.75 15)" fill="white"/>
<rect width="1.25" height="1.25" transform="translate(771.75 16.25)" fill="white"/>
<rect width="1.25" height="1.25" transform="translate(771.75 17.5)" fill="white"/>
<rect width="1.25" height="1.25" transform="translate(771.75 18.75)" fill="white"/>
<rect width="1.25" height="1.25" transform="translate(771.75 20)" fill="white"/>
<rect width="1.25" height="1.25" transform="translate(771.75 21.25)" fill="white"/>
<rect width="1.25" height="1.25" transform="translate(771.75 22.5)" fill="white"/>
<rect width="1.25" height="1.25" transform="translate(771.75 23.75)" fill="black"/>
<rect width="1.25" height="1.25" transform="translate(771.75 25)" fill="#992231"/>
<rect width="1.25" height="1.25" transform="translate(771.75 26.25)" fill="#992231"/>
<rect width="1.25" height="1.25" transform="translate(771.75 27.5)" fill="#D41730"/>
<rect width="1.25" height="1.25" transform="translate(771.75 28.75)" fill="#D41730"/>
<rect width="1.25" height="1.25" transform="translate(771.75 30)" fill="#D41730"/>
<rect width="1.25" height="1.25" transform="translate(771.75 31.25)" fill="#992231"/>
<rect width="1.25" height="1.25" transform="translate(771.75 32.5)" fill="#992231"/>
<rect width="1.25" height="1.25" transform="translate(771.75 33.75)" fill="black"/>
<rect width="1.25" height="1.25" transform="translate(771.75 35)" fill="white"/>
<rect width="1.25" height="1.25" transform="translate(771.75 36.25)" fill="white"/>
<rect width="1.25" height="1.25" transform="translate(771.75 37.5)" fill="white"/>
<rect width="1.25" height="1.25" transform="translate(771.75 38.75)" fill="white"/>
<rect width="1.25" height="1.25" transform="translate(773 10)" fill="white"/>
<rect width="1.25" height="1.25" transform="translate(773 11.25)" fill="white"/>
<rect width="1.25" height="1.25" transform="translate(773 12.5)" fill="white"/>
<rect width="1.25" height="1.25" transform="translate(773 13.75)" fill="white"/>
<rect width="1.25" height="1.25" transform="translate(773 15)" fill="white"/>
<rect width="1.25" height="1.25" transform="translate(773 16.25)" fill="white"/>
<rect width="1.25" height="1.25" transform="translate(773 17.5)" fill="white"/>
<rect width="1.25" height="1.25" transform="translate(773 18.75)" fill="white"/>
<rect width="1.25" height="1.25" transform="translate(773 20)" fill="white"/>
<rect width="1.25" height="1.25" transform="translate(773 21.25)" fill="white"/>
<rect width="1.25" height="1.25" transform="translate(773 22.5)" fill="white"/>
<rect width="1.25" height="1.25" transform="translate(773 23.75)" fill="white"/>
<rect width="1.25" height="1.25" transform="translate(773 25)" fill="black"/>
<rect width="1.25" height="1.25" transform="translate(773 26.25)" fill="black"/>
<rect width="1.25" height="1.25" transform="translate(773 27.5)" fill="#992231"/>
<rect width="1.25" height="1.25" transform="translate(773 28.75)" fill="#992231"/>
<rect width="1.25" height="1.25" transform="translate(773 30)" fill="#992231"/>
<rect width="1.25" height="1.25" transform="translate(773 31.25)" fill="black"/>
<rect width="1.25" height="1.25" transform="translate(773 32.5)" fill="black"/>
<rect width="1.25" height="1.25" transform="translate(773 33.75)" fill="white"/>
<rect width="1.25" height="1.25" transform="translate(773 35)" fill="white"/>
<rect width="1.25" height="1.25" transform="translate(773 36.25)" fill="white"/>
<rect width="1.25" height="1.25" transform="translate(773 37.5)" fill="white"/>
<rect width="1.25" height="1.25" transform="translate(773 38.75)" fill="white"/>
<rect width="1.25" height="1.25" transform="translate(774.25 10)" fill="white"/>
<rect width="1.25" height="1.25" transform="translate(774.25 11.25)" fill="white"/>
<rect width="1.25" height="1.25" transform="translate(774.25 12.5)" fill="white"/>
<rect width="1.25" height="1.25" transform="translate(774.25 13.75)" fill="white"/>
<rect width="1.25" height="1.25" transform="translate(774.25 15)" fill="white"/>
<rect width="1.25" height="1.25" transform="translate(774.25 16.25)" fill="white"/>
<rect width="1.25" height="1.25" transform="translate(774.25 17.5)" fill="white"/>
<rect width="1.25" height="1.25" transform="translate(774.25 18.75)" fill="white"/>
<rect width="1.25" height="1.25" transform="translate(774.25 20)" fill="white"/>
<rect width="1.25" height="1.25" transform="translate(774.25 21.25)" fill="white"/>
<rect width="1.25" height="1.25" transform="translate(774.25 22.5)" fill="white"/>
<rect width="1.25" height="1.25" transform="translate(774.25 23.75)" fill="white"/>
<rect width="1.25" height="1.25" transform="translate(774.25 25)" fill="white"/>
<rect width="1.25" height="1.25" transform="translate(774.25 26.25)" fill="white"/>
<rect width="1.25" height="1.25" transform="translate(774.25 27.5)" fill="black"/>
<rect width="1.25" height="1.25" transform="translate(774.25 28.75)" fill="black"/>
<rect width="1.25" height="1.25" transform="translate(774.25 30)" fill="black"/>
<rect width="1.25" height="1.25" transform="translate(774.25 31.25)" fill="white"/>
<rect width="1.25" height="1.25" transform="translate(774.25 32.5)" fill="white"/>
<rect width="1.25" height="1.25" transform="translate(774.25 33.75)" fill="white"/>
<rect width="1.25" height="1.25" transform="translate(774.25 35)" fill="white"/>
<rect width="1.25" height="1.25" transform="translate(774.25 36.25)" fill="white"/>
<rect width="1.25" height="1.25" transform="translate(774.25 37.5)" fill="white"/>
<rect width="1.25" height="1.25" transform="translate(774.25 38.75)" fill="white"/>
<rect width="1.25" height="1.25" transform="translate(775.5 10)" fill="white"/>
<rect width="1.25" height="1.25" transform="translate(775.5 11.25)" fill="white"/>
<rect width="1.25" height="1.25" transform="translate(775.5 12.5)" fill="white"/>
<rect width="1.25" height="1.25" transform="translate(775.5 13.75)" fill="white"/>
<rect width="1.25" height="1.25" transform="translate(775.5 15)" fill="white"/>
<rect width="1.25" height="1.25" transform="translate(775.5 16.25)" fill="white"/>
<rect width="1.25" height="1.25" transform="translate(775.5 17.5)" fill="white"/>
<rect width="1.25" height="1.25" transform="translate(775.5 18.75)" fill="white"/>
<rect width="1.25" height="1.25" transform="translate(775.5 20)" fill="white"/>
<rect width="1.25" height="1.25" transform="translate(775.5 21.25)" fill="white"/>
<rect width="1.25" height="1.25" transform="translate(775.5 22.5)" fill="white"/>
<rect width="1.25" height="1.25" transform="translate(775.5 23.75)" fill="white"/>
<rect width="1.25" height="1.25" transform="translate(775.5 25)" fill="white"/>
<rect width="1.25" height="1.25" transform="translate(775.5 26.25)" fill="white"/>
<rect width="1.25" height="1.25" transform="translate(775.5 27.5)" fill="white"/>
<rect width="1.25" height="1.25" transform="translate(775.5 28.75)" fill="white"/>
<rect width="1.25" height="1.25" transform="translate(775.5 30)" fill="white"/>
<rect width="1.25" height="1.25" transform="translate(775.5 31.25)" fill="white"/>
<rect width="1.25" height="1.25" transform="translate(775.5 32.5)" fill="white"/>
<rect width="1.25" height="1.25" transform="translate(775.5 33.75)" fill="white"/>
<rect width="1.25" height="1.25" transform="translate(775.5 35)" fill="white"/>
<rect width="1.25" height="1.25" transform="translate(775.5 36.25)" fill="white"/>
<rect width="1.25" height="1.25" transform="translate(775.5 37.5)" fill="white"/>
<rect width="1.25" height="1.25" transform="translate(775.5 38.75)" fill="white"/>
<rect width="1.25" height="1.25" transform="translate(776.75 10)" fill="white"/>
<rect width="1.25" height="1.25" transform="translate(776.75 11.25)" fill="white"/>
<rect width="1.25" height="1.25" transform="translate(776.75 12.5)" fill="white"/>
<rect width="1.25" height="1.25" transform="translate(776.75 13.75)" fill="white"/>
<rect width="1.25" height="1.25" transform="translate(776.75 15)" fill="white"/>
<rect width="1.25" height="1.25" transform="translate(776.75 16.25)" fill="white"/>
<rect width="1.25" height="1.25" transform="translate(776.75 17.5)" fill="white"/>
<rect width="1.25" height="1.25" transform="translate(776.75 18.75)" fill="white"/>
<rect width="1.25" height="1.25" transform="translate(776.75 20)" fill="white"/>
<rect width="1.25" height="1.25" transform="translate(776.75 21.25)" fill="white"/>
<rect width="1.25" height="1.25" transform="translate(776.75 22.5)" fill="white"/>
<rect width="1.25" height="1.25" transform="translate(776.75 23.75)" fill="white"/>
<rect width="1.25" height="1.25" transform="translate(776.75 25)" fill="white"/>
<rect width="1.25" height="1.25" transform="translate(776.75 26.25)" fill="white"/>
<rect width="1.25" height="1.25" transform="translate(776.75 27.5)" fill="white"/>
<rect width="1.25" height="1.25" transform="translate(776.75 28.75)" fill="white"/>
<rect width="1.25" height="1.25" transform="translate(776.75 30)" fill="white"/>
<rect width="1.25" height="1.25" transform="translate(776.75 31.25)" fill="white"/>
<rect width="1.25" height="1.25" transform="translate(776.75 32.5)" fill="white"/>
<rect width="1.25" height="1.25" transform="translate(776.75 33.75)" fill="white"/>
<rect width="1.25" height="1.25" transform="translate(776.75 35)" fill="white"/>
<rect width="1.25" height="1.25" transform="translate(776.75 36.25)" fill="white"/>
<rect width="1.25" height="1.25" transform="translate(776.75 37.5)" fill="white"/>
<rect width="1.25" height="1.25" transform="translate(776.75 38.75)" fill="white"/>
<path d="M4.5 35.5V31H13.5V8.5H4.5V4H31.5V8.5H22.5V31H31.5V35.5H4.5ZM72 35.5V13H99V17.5H103.5V35.5H94.5V17.5H90V35.5H81V17.5H76.5V35.5H72ZM112.5 35.5V31H108V26.5H112.5V22H130.5V17.5H112.5V13H135V17.5H139.5V35.5H112.5ZM117 31H130.5V26.5H117V31ZM144 35.5V4H153V22H162V17.5H166.5V13H175.5V17.5H171V22H166.5V26.5H171V31H175.5V35.5H166.5V31H162V26.5H153V35.5H144ZM184.5 35.5V31H180V17.5H184.5V13H207V17.5H211.5V26.5H189V31H207V35.5H184.5ZM189 22H202.5V17.5H189V22ZM463.375 8.5V4H472.375V8.5H463.375ZM454.375 35.5V31H463.375V17.5H458.875V13H472.375V31H481.375V35.5H454.375ZM485.875 35.5V13H512.875V17.5H517.375V35.5H508.375V17.5H494.875V35.5H485.875ZM535.375 35.5V17.5H526.375V13H535.375V4H544.375V13H553.375V17.5H544.375V35.5H535.375ZM562.375 35.5V31H557.875V17.5H562.375V13H584.875V17.5H589.375V26.5H566.875V31H584.875V35.5H562.375ZM566.875 22H580.375V17.5H566.875V22ZM607.375 17.5H611.875V22H607.375V35.5H598.375V13H607.375V17.5ZM625.375 13V17.5H611.875V13H625.375ZM629.875 35.5V13H656.875V17.5H661.375V35.5H652.375V17.5H638.875V35.5H629.875ZM670.375 35.5V31H665.875V17.5H670.375V13H692.875V17.5H697.375V26.5H674.875V31H692.875V35.5H670.375ZM674.875 22H688.375V17.5H674.875V22ZM715.375 35.5V17.5H706.375V13H715.375V4H724.375V13H733.375V17.5H724.375V35.5H715.375Z" fill="black"/>
<path d="M262.112 62.784C261.259 62.784 260.235 60.5013 259.04 55.936C257.888 51.3707 256.843 46.2933 255.904 40.704C255.008 35.1573 254.56 31.6587 254.56 30.208C254.56 25.8987 256.011 22.7627 258.912 20.8C261.813 18.7947 265.547 17.792 270.112 17.792C272.544 17.792 274.848 18.304 277.024 19.328C279.2 20.3093 280.949 21.7387 282.272 23.616C283.595 25.4507 284.256 27.584 284.256 30.016C284.256 33.0453 283.189 35.1787 281.056 36.416C278.965 37.6533 276.32 38.272 273.12 38.272C269.792 38.272 266.955 37.7173 264.608 36.608C262.304 35.456 261.152 33.8987 261.152 31.936L261.216 31.296C261.515 30.9547 261.835 30.784 262.176 30.784C262.475 30.784 262.795 30.912 263.136 31.168C263.52 31.3813 263.925 31.6373 264.352 31.936C265.675 32.9173 266.976 33.7067 268.256 34.304C269.579 34.9013 271.221 35.2 273.184 35.2C275.872 35.2 277.771 34.7307 278.88 33.792C280.032 32.8107 280.608 31.2747 280.608 29.184C280.608 27.648 280.096 26.2827 279.072 25.088C278.048 23.8933 276.725 22.976 275.104 22.336C273.483 21.696 271.819 21.376 270.112 21.376C266.144 21.376 263.157 22.2293 261.152 23.936C259.147 25.6 258.251 28.3947 258.464 32.32C258.848 38.976 259.445 44.5653 260.256 49.088C261.109 53.6107 262.581 57.4507 264.672 60.608L264.736 60.736C264.736 60.8213 264.629 60.9067 264.416 60.992C264.245 61.12 264.117 61.2267 264.032 61.312C263.52 62.1227 262.88 62.6133 262.112 62.784ZM295.005 40C293.255 36.5867 291.869 32.576 290.845 27.968C289.863 23.36 289.373 19.3707 289.373 16C289.373 14.6773 289.671 13.824 290.269 13.44C290.61 13.2267 290.866 13.12 291.036 13.12C291.335 13.12 291.549 13.3547 291.677 13.824C291.847 14.2933 292.018 15.1467 292.189 16.384L292.509 18.688C292.978 16.384 293.874 14.5707 295.197 13.248C296.562 11.8827 298.226 11.2 300.189 11.2C302.365 11.2 303.986 11.6267 305.053 12.48C306.119 13.2907 306.653 14.656 306.653 16.576C304.519 15.552 302.578 15.04 300.829 15.04C299.165 15.04 297.735 15.488 296.541 16.384C295.346 17.28 294.514 18.6027 294.045 20.352C293.661 21.5467 293.469 22.6773 293.469 23.744C293.469 24.896 293.618 25.984 293.917 27.008C294.258 27.9893 294.77 29.2053 295.453 30.656C296.093 32.1493 296.583 33.4293 296.925 34.496C297.309 35.5627 297.522 36.7147 297.565 37.952C297.565 38.6773 297.309 39.2107 296.797 39.552C296.285 39.8507 295.687 40 295.005 40ZM324.289 40C321.558 40 319.041 39.4667 316.737 38.4C314.433 37.3333 312.598 35.8187 311.233 33.856C309.868 31.8933 309.185 29.632 309.185 27.072C309.185 24.2133 309.718 21.5467 310.785 19.072C311.852 16.5547 313.409 14.5493 315.457 13.056C317.548 11.52 319.98 10.752 322.753 10.752C325.654 10.752 327.852 11.6907 329.345 13.568C330.838 15.4027 331.542 17.728 331.457 20.544C331.457 23.0613 330.454 24.9813 328.449 26.304C326.486 27.6267 323.969 28.288 320.897 28.288C320.428 28.288 319.724 28.2453 318.785 28.16C317.249 27.9893 316.161 27.7547 315.521 27.456C314.881 27.1573 314.561 26.56 314.561 25.664C314.561 25.3653 314.646 25.152 314.817 25.024C314.988 24.8533 315.329 24.768 315.841 24.768C316.396 24.768 317.377 24.896 318.785 25.152C320.15 25.408 321.366 25.536 322.433 25.536C326.358 25.536 328.321 23.8293 328.321 20.416C328.321 18.368 327.937 16.7467 327.169 15.552C326.444 14.3573 325.142 13.76 323.265 13.76C321.217 13.76 319.382 14.3147 317.761 15.424C316.14 16.4907 314.881 17.8987 313.985 19.648C313.132 21.3973 312.705 23.2533 312.705 25.216C312.705 28.5867 313.644 31.36 315.521 33.536C317.398 35.6693 320.3 36.736 324.225 36.736C324.694 36.736 325.484 36.6933 326.593 36.608C327.062 36.5653 327.638 36.4373 328.321 36.224C329.004 36.0107 329.494 35.8613 329.793 35.776C331.628 35.136 332.972 34.816 333.825 34.816C334.465 34.816 334.956 34.9867 335.297 35.328C334.23 36.9493 332.63 38.144 330.497 38.912C328.406 39.6373 326.337 40 324.289 40ZM348.177 40C347.75 40.0853 347.473 40.128 347.345 40.128C346.022 40.128 345.105 39.1467 344.593 37.184C344.123 35.2213 343.889 32.4693 343.889 28.928C343.889 27.4773 343.931 25.216 344.017 22.144C344.102 20.2667 344.145 18.8587 344.145 17.92C338.897 17.92 336.273 17.3227 336.273 16.128C336.273 15.744 336.315 15.4453 336.401 15.232C336.529 15.0187 336.785 14.912 337.169 14.912L344.145 14.464C344.102 12.3733 343.995 10.0907 343.825 7.616C343.654 5.39733 343.547 3.34933 343.505 1.472C343.505 1.00266 343.697 0.682664 344.081 0.511997C344.465 0.298664 344.87 0.191998 345.297 0.191998C345.809 0.191998 346.235 0.469331 346.577 1.024C346.918 1.536 347.089 2.06933 347.089 2.624L347.537 14.336L352.849 14.592C353.659 14.5067 354.342 14.656 354.897 15.04C355.494 15.424 355.814 16.064 355.857 16.96C354.961 17.344 353.979 17.5787 352.913 17.664C351.846 17.7493 350.054 17.792 347.537 17.792C347.537 21.76 347.729 28.288 348.113 37.376C348.113 38.3147 348.113 38.976 348.113 39.36C348.155 39.7013 348.177 39.9147 348.177 40ZM369.677 40C369.25 40.0853 368.973 40.128 368.845 40.128C367.522 40.128 366.605 39.1467 366.093 37.184C365.623 35.2213 365.389 32.4693 365.389 28.928C365.389 27.4773 365.431 25.216 365.517 22.144C365.602 20.2667 365.645 18.8587 365.645 17.92C360.397 17.92 357.773 17.3227 357.773 16.128C357.773 15.744 357.815 15.4453 357.901 15.232C358.029 15.0187 358.285 14.912 358.669 14.912L365.645 14.464C365.602 12.3733 365.495 10.0907 365.325 7.616C365.154 5.39733 365.047 3.34933 365.005 1.472C365.005 1.00266 365.197 0.682664 365.581 0.511997C365.965 0.298664 366.37 0.191998 366.797 0.191998C367.309 0.191998 367.735 0.469331 368.077 1.024C368.418 1.536 368.589 2.06933 368.589 2.624L369.037 14.336L374.349 14.592C375.159 14.5067 375.842 14.656 376.397 15.04C376.994 15.424 377.314 16.064 377.357 16.96C376.461 17.344 375.479 17.5787 374.413 17.664C373.346 17.7493 371.554 17.792 369.037 17.792C369.037 21.76 369.229 28.288 369.613 37.376C369.613 38.3147 369.613 38.976 369.613 39.36C369.655 39.7013 369.677 39.9147 369.677 40ZM398.409 70.272C395.507 70.272 392.905 69.6533 390.601 68.416C388.339 67.1787 386.526 65.7493 385.161 64.128C383.795 62.5067 383.027 61.184 382.857 60.16C382.686 59.2213 382.899 58.496 383.497 57.984C384.137 57.472 384.926 57.2587 385.865 57.344C387.187 60.5013 388.766 62.9333 390.601 64.64C392.435 66.3467 395.059 67.2427 398.473 67.328C400.862 67.3707 402.761 65.8347 404.169 62.72C405.619 59.648 406.643 55.872 407.241 51.392C407.838 46.9547 408.137 42.5813 408.137 38.272C408.137 36.0533 408.073 34.24 407.945 32.832C404.702 36.8 400.563 38.784 395.529 38.784C391.177 38.784 387.827 36.7147 385.481 32.576C383.177 28.4373 381.683 23.7653 381.001 18.56C380.915 18.048 380.873 17.3227 380.873 16.384C380.873 13.696 381.747 12.352 383.497 12.352C383.667 12.352 383.902 13.4187 384.201 15.552C384.67 18.9227 385.246 21.952 385.929 24.64C386.611 27.328 387.742 29.7813 389.321 32C390.942 34.176 393.075 35.264 395.721 35.264C397.811 35.264 399.945 34.5813 402.121 33.216C404.339 31.808 405.939 30.2507 406.921 28.544C406.921 25.3013 406.494 22.4 405.641 19.84C404.83 17.2373 404.403 15.8507 404.361 15.68C404.275 14.7413 404.233 14.144 404.233 13.888C404.233 13.0347 404.361 12.416 404.617 12.032C404.915 11.648 405.342 11.456 405.897 11.456C406.494 11.456 407.177 12.672 407.945 15.104C408.713 17.536 409.395 20.7147 409.993 24.64C410.59 28.5653 410.995 32.6613 411.208 36.928C411.294 39.1467 411.337 40.7893 411.337 41.856C411.337 50.048 410.313 56.832 408.265 62.208C406.259 67.584 402.974 70.272 398.409 70.272Z" fill="#D41730"/>
<style>
    svg { cursor: pointer; }
</style>
</svg>
